<svg width="15" height="14" viewBox="0 0 15 14" fill="none" xmlns="http://www.w3.org/2000/svg">
<g clip-path="url(#clip0_2_478)">
<path d="M12.3589 6.97064C12.3091 6.14392 11.9766 5.34859 11.4036 4.68547C11.229 4.84809 11.0424 5.00072 10.8449 5.1424C10.2382 5.57824 9.56013 5.93398 8.83289 6.19806C8.93431 6.38189 9.02723 6.55993 9.10921 6.728V6.72957C9.13235 6.77653 9.15462 6.82381 9.17602 6.87138C10.0955 6.78209 11.0647 6.81466 12.0042 6.92442C12.1293 6.93913 12.2472 6.95489 12.3589 6.97064V6.97064ZM6.65934 3.05785C7.25118 3.77905 7.79695 4.52771 8.29421 5.30048C9.03694 5.04733 9.65093 4.72801 10.1453 4.37244C10.3169 4.25014 10.4784 4.11764 10.6287 3.97591C9.75477 3.34026 8.64906 2.99237 7.50714 2.99377C7.22294 2.99361 6.93927 3.01487 6.65934 3.05732V3.05785ZM2.80234 6.14344C3.21605 6.13441 3.62928 6.11286 4.04125 6.07884C5.03701 6.00182 6.02427 5.85747 6.99397 5.64712C6.48718 4.88568 5.94002 4.14488 5.35424 3.42707C4.72855 3.69513 4.17683 4.07644 3.73653 4.54512C3.29622 5.01381 2.97762 5.55891 2.80234 6.14344ZM3.73152 9.83985C3.96715 9.54206 4.27688 9.20697 4.68803 8.84248C5.57105 8.05992 6.61319 7.45068 7.8193 7.11455L7.85695 7.1051C7.75674 6.91392 7.66261 6.74323 7.56787 6.58251C6.45286 6.8635 5.27833 7.03892 4.10805 7.12978C3.53718 7.17442 3.02522 7.19386 2.64869 7.19701C2.64762 8.1595 3.03026 9.09288 3.73213 9.83985H3.73152ZM9.3321 11.0898C9.0979 10.0684 8.76639 9.06556 8.34097 8.09143C7.12515 8.47326 6.15649 9.03156 5.40768 9.69752C5.10549 9.96137 4.83731 10.2528 4.60786 10.5667C5.44522 11.1071 6.46238 11.3984 7.50714 11.3971C8.13261 11.3979 8.75234 11.2939 9.3321 11.0909V11.0898ZM10.4696 10.5252C11.4177 9.89487 12.0637 8.98413 12.2836 7.96749C12.0771 7.92284 11.8154 7.8782 11.5275 7.84354C10.8875 7.76383 10.2381 7.758 9.59627 7.8262C9.95766 8.70794 10.2494 9.60987 10.4696 10.5258V10.5252ZM7.50714 12.4475C4.15299 12.4475 1.43408 10.0962 1.43408 7.19543C1.43408 4.29471 4.15299 1.94336 7.50714 1.94336C10.8613 1.94336 13.5802 4.29471 13.5802 7.19543C13.5802 10.0962 10.8613 12.4475 7.50714 12.4475Z" fill="#2B2B2B"/>
</g>
<defs>
<clipPath id="clip0_2_478">
<rect width="14.5753" height="12.605" fill="white" transform="translate(0.219238 0.893066)"/>
</clipPath>
</defs>
</svg>
