<svg width="16" height="14" viewBox="0 0 16 14" fill="none" xmlns="http://www.w3.org/2000/svg">
<g clip-path="url(#clip0_2_462)">
<path d="M8.09601 1.94336C9.74606 1.94336 9.95193 1.94861 10.5993 1.97487C11.2461 2.00113 11.6864 2.08884 12.0739 2.21909C12.4747 2.3525 12.8123 2.53317 13.15 2.82466C13.4588 3.08721 13.6978 3.40479 13.8502 3.75532C14.0002 4.08988 14.1023 4.47118 14.1326 5.03053C14.1612 5.5904 14.1691 5.76844 14.1691 7.19543C14.1691 8.62242 14.163 8.80046 14.1326 9.36033C14.1023 9.91968 14.0002 10.3005 13.8502 10.6355C13.6982 10.9863 13.4592 11.3039 13.15 11.5662C12.8463 11.8332 12.4791 12.0398 12.0739 12.1718C11.687 12.3015 11.2461 12.3897 10.5993 12.416C9.95193 12.4407 9.74606 12.4475 8.09601 12.4475C6.44596 12.4475 6.24008 12.4423 5.59269 12.416C4.94591 12.3897 4.50562 12.3015 4.11815 12.1718C3.71267 12.0402 3.34537 11.8335 3.04201 11.5662C2.73314 11.3037 2.49418 10.9861 2.34178 10.6355C2.19117 10.301 2.08975 9.91968 2.05939 9.36033C2.03084 8.80046 2.02295 8.62242 2.02295 7.19543C2.02295 5.76844 2.02902 5.5904 2.05939 5.03053C2.08975 4.47066 2.19117 4.09041 2.34178 3.75532C2.49375 3.40458 2.73277 3.0869 3.04201 2.82466C3.34546 2.55745 3.71273 2.35078 4.11815 2.21909C4.50562 2.08884 4.94531 2.00113 5.59269 1.97487C6.24008 1.95019 6.44596 1.94336 8.09601 1.94336ZM8.09601 4.5694C7.29067 4.5694 6.51832 4.84607 5.94886 5.33854C5.3794 5.83102 5.05948 6.49896 5.05948 7.19543C5.05948 7.8919 5.3794 8.55984 5.94886 9.05232C6.51832 9.5448 7.29067 9.82147 8.09601 9.82147C8.90135 9.82147 9.6737 9.5448 10.2432 9.05232C10.8126 8.55984 11.1325 7.8919 11.1325 7.19543C11.1325 6.49896 10.8126 5.83102 10.2432 5.33854C9.6737 4.84607 8.90135 4.5694 8.09601 4.5694ZM12.0435 4.43809C12.0435 4.26398 11.9635 4.09699 11.8212 3.97387C11.6788 3.85075 11.4857 3.78158 11.2844 3.78158C11.083 3.78158 10.8899 3.85075 10.7476 3.97387C10.6052 4.09699 10.5252 4.26398 10.5252 4.43809C10.5252 4.61221 10.6052 4.7792 10.7476 4.90232C10.8899 5.02543 11.083 5.0946 11.2844 5.0946C11.4857 5.0946 11.6788 5.02543 11.8212 4.90232C11.9635 4.7792 12.0435 4.61221 12.0435 4.43809ZM8.09601 5.61981C8.57921 5.61981 9.04262 5.78581 9.3843 6.0813C9.72597 6.37678 9.91793 6.77755 9.91793 7.19543C9.91793 7.61331 9.72597 8.01408 9.3843 8.30956C9.04262 8.60505 8.57921 8.77105 8.09601 8.77105C7.61281 8.77105 7.14939 8.60505 6.80772 8.30956C6.46604 8.01408 6.27409 7.61331 6.27409 7.19543C6.27409 6.77755 6.46604 6.37678 6.80772 6.0813C7.14939 5.78581 7.61281 5.61981 8.09601 5.61981Z" fill="#2B2B2B"/>
</g>
<defs>
<clipPath id="clip0_2_462">
<rect width="14.5753" height="12.605" fill="white" transform="translate(0.808105 0.893066)"/>
</clipPath>
</defs>
</svg>
