<svg width="15" height="14" viewBox="0 0 15 14" fill="none" xmlns="http://www.w3.org/2000/svg">
<g clip-path="url(#clip0_2_470)">
<path d="M4.22854 3.5192C4.22838 3.79779 4.10026 4.06491 3.87236 4.2618C3.64446 4.4587 3.33546 4.56923 3.01332 4.56909C2.69119 4.56895 2.38231 4.45815 2.15464 4.26106C1.92697 4.06397 1.79916 3.79674 1.79932 3.51815C1.79948 3.23956 1.9276 2.97244 2.1555 2.77555C2.3834 2.57866 2.6924 2.46812 3.01454 2.46826C3.33667 2.4684 3.64555 2.5792 3.87322 2.77629C4.10089 2.97338 4.2287 3.24061 4.22854 3.5192ZM4.26498 5.34692H1.83575V11.9225H4.26498V5.34692ZM8.10315 5.34692H5.68607V11.9225H8.07886V8.47191C8.07886 6.54965 10.9757 6.37108 10.9757 8.47191V11.9225H13.3746V7.75762C13.3746 4.51709 9.08699 4.63789 8.07886 6.22927L8.10315 5.34692Z" fill="#2B2B2B"/>
</g>
<defs>
<clipPath id="clip0_2_470">
<rect width="14.5753" height="12.605" fill="white" transform="translate(0.0136719 0.893066)"/>
</clipPath>
</defs>
</svg>
