<svg width="15" height="14" viewBox="0 0 15 14" fill="none" xmlns="http://www.w3.org/2000/svg">
<g clip-path="url(#clip0_2_466)">
<path d="M13.8704 3.8634C13.4068 4.04076 12.9151 4.15724 12.4117 4.20898C12.9423 3.93453 13.3395 3.50259 13.5291 2.99365C13.0311 3.24996 12.4852 3.42958 11.9161 3.52674C11.5339 3.17305 11.0272 2.93849 10.4749 2.85951C9.92266 2.78053 9.35567 2.86156 8.86213 3.09C8.36858 3.31845 7.97614 3.68151 7.74581 4.12274C7.51547 4.56397 7.46015 5.05865 7.58844 5.52988C6.57856 5.48611 5.59061 5.25915 4.68873 4.86374C3.78686 4.46833 2.99122 3.91332 2.35347 3.23472C2.12772 3.57004 2.0091 3.95123 2.00973 4.33923C2.00973 5.10079 2.45792 5.77358 3.13932 6.16748C2.73607 6.1565 2.3417 6.06232 1.98908 5.8928V5.92011C1.9892 6.4273 2.19215 6.91885 2.5635 7.31141C2.93486 7.70398 3.45177 7.97339 4.02659 8.07398C3.65226 8.16171 3.25975 8.17464 2.87879 8.1118C3.04086 8.54837 3.35674 8.93018 3.78221 9.20376C4.20768 9.47735 4.72143 9.62901 5.25153 9.63753C4.72468 9.99536 4.12144 10.2599 3.4763 10.416C2.83116 10.5721 2.15678 10.6166 1.4917 10.5472C2.65268 11.1929 4.00418 11.5357 5.38453 11.5346C10.0565 11.5346 12.6115 8.18743 12.6115 5.28461C12.6115 5.19007 12.6084 5.09448 12.6036 5.001C13.1009 4.69016 13.5301 4.30511 13.871 3.86392L13.8704 3.8634Z" fill="#2B2B2B"/>
</g>
<defs>
<clipPath id="clip0_2_466">
<rect width="14.5753" height="12.605" fill="white" transform="translate(0.411133 0.893066)"/>
</clipPath>
</defs>
</svg>
