<svg width="16" height="14" viewBox="0 0 16 14" fill="none" xmlns="http://www.w3.org/2000/svg">
<g clip-path="url(#clip0_2_474)">
<path d="M13.6996 4.30562C13.9772 5.24154 13.9772 7.19531 13.9772 7.19531C13.9772 7.19531 13.9772 9.14908 13.6996 10.085C13.5454 10.6023 13.0941 11.0094 12.5227 11.147C11.4848 11.397 7.90411 11.397 7.90411 11.397C7.90411 11.397 4.32526 11.397 3.28555 11.147C2.71165 11.0073 2.26103 10.6008 2.10859 10.085C1.83105 9.14908 1.83105 7.19531 1.83105 7.19531C1.83105 7.19531 1.83105 5.24154 2.10859 4.30562C2.26285 3.78829 2.71408 3.38126 3.28555 3.24365C4.32526 2.99365 7.90411 2.99365 7.90411 2.99365C7.90411 2.99365 11.4848 2.99365 12.5227 3.24365C13.0966 3.38336 13.5472 3.78987 13.6996 4.30562ZM6.6895 9.03353L10.3333 7.19531L6.6895 5.35708V9.03353Z" fill="#2B2B2B"/>
</g>
<defs>
<clipPath id="clip0_2_474">
<rect width="14.5753" height="12.605" fill="white" transform="translate(0.616211 0.893066)"/>
</clipPath>
</defs>
</svg>
